<?xml version="1.0" encoding="utf-8"?>
<!-- Generator: Adobe Illustrator 26.0.2, SVG Export Plug-In . SVG Version: 6.00 Build 0)  -->
<svg version="1.1" id="Capa_1" xmlns="http://www.w3.org/2000/svg" xmlns:xlink="http://www.w3.org/1999/xlink" x="0px" y="0px"
	 viewBox="0 0 83.17 54.84" style="enable-background:new 0 0 83.17 54.84;" xml:space="preserve">
<style type="text/css">
	.st0{fill:#020203;}
</style>
<g>
	<path class="st0" d="M83.07,47.83c-0.04,2.21-0.1,4.49-0.12,6.82c-2.47,0.01-7-0.33-9.53-0.36c-1.59-0.03-2.94,0.21-3.38,0.21H62.6
		c-0.21,0-1.44-0.19-2.33-0.21c-2.44-0.04-5.64,0.36-9.17,0.36c-2.55,0-4.86,0.05-6.2,0.17c-1.13,0.11-4.02-0.21-6.55-0.26
		l-0.18-11.67c0.04-4.2,0.41-9.64,0.45-13.88c0.14,0,0.29-0.01,0.43-0.01c0.2-0.01,0.4-0.02,0.6-0.03c0.21,0,0.4-0.01,0.61-0.02
		c0.18,0,0.37-0.01,0.55-0.02c0.24,0,0.48-0.01,0.72-0.02c0.13,0,0.26,0,0.39-0.01c0.36-0.01,0.72-0.02,1.06-0.02
		c0.1-0.01,0.2-0.01,0.3-0.01c0.23,0,0.48-0.01,0.7-0.01c0.17-0.01,0.32-0.01,0.48-0.01s0.31,0,0.47-0.01h2.18
		c0.1,0,0.21,0.01,0.3,0.01c0.15,0,0.3,0,0.45,0.01h0.25c0.14,0.01,0.28,0.01,0.41,0.01c0.07,0.01,0.14,0.01,0.22,0.01
		c0.13,0.01,0.26,0.01,0.39,0.02c0.05,0,0.11,0.01,0.16,0.01c0.13,0.01,0.24,0.01,0.36,0.02c0.04,0.01,0.09,0.01,0.13,0.01
		c0.11,0.01,0.22,0.02,0.3,0.03c0.04,0,0.08,0.01,0.13,0.01c0.08,0.01,0.17,0.02,0.24,0.03c0.06,0.01,0.13,0.03,0.18,0.04
		c0.04,0,0.08,0.01,0.11,0.02c0.04,0.01,0.1,0.01,0.15,0.02c0.08,0.02,0.16,0.04,0.26,0.05c0.07,0.02,0.16,0.03,0.24,0.04
		c0.07,0.01,0.14,0.02,0.22,0.03c0.1,0.01,0.21,0.02,0.3,0.03c0.07,0.01,0.13,0.02,0.21,0.02c0.12,0.01,0.24,0.02,0.37,0.03
		c0.06,0.01,0.13,0.01,0.2,0.02c0.13,0,0.27,0.01,0.4,0.02c0.07,0,0.13,0,0.21,0.01c0.14,0,0.3,0.01,0.45,0.01
		c0.06,0,0.13,0.01,0.21,0.01c0.14,0,0.3,0,0.46,0.01h0.93c0.49,0,1,0,1.52-0.01h0.05c0.54-0.01,1.09-0.03,1.65-0.04h0.01
		c1.14-0.04,2.31-0.07,3.49-0.12c1.08-0.04,1.92-0.08,2.36-0.08h18.4c0.03,0.43,0.05,0.86,0.08,1.28l0.02,0.33
		c0.1,1.56,0.42,5.14,0.19,6.7C82.94,38.42,83.17,43.51,83.07,47.83z"/>
	<path class="st0" d="M82.61,25.48H64.4c-0.47,0-1.35,0.04-2.49,0.08c-1.1,0.05-2.56,0.1-4.04,0.14c-2.59,0.05-4.38,0.17-5.53-0.06
		c-0.13-0.03-1.21-0.17-1.38-0.19c-0.06-0.01-0.13-0.02-0.19-0.02c-0.13-0.02-0.25-0.04-0.39-0.04c-0.07-0.01-0.15-0.01-0.24-0.02
		c-0.13-0.01-0.28-0.02-0.43-0.03c-0.09-0.01-0.18-0.01-0.27-0.02c-0.16-0.01-0.32-0.02-0.49-0.02c-0.1-0.01-0.19-0.01-0.29-0.02
		c-0.19,0-0.38-0.01-0.58-0.01c-0.08-0.01-0.16-0.01-0.25-0.01c-0.27-0.01-0.54-0.01-0.82-0.01c-0.02-0.01-0.04-0.01-0.06-0.01
		h-0.97c-0.52,0-1.06,0.01-1.61,0.01c-0.11,0-0.22,0-0.32,0.01c-0.53,0-1.06,0.01-1.59,0.03c-0.12,0-0.24,0-0.36,0.01
		c-0.54,0.01-1.07,0.03-1.58,0.04c-0.09,0.01-0.17,0.01-0.26,0.01c-0.5,0.02-1,0.04-1.47,0.04c-0.04,0.01-0.08,0.01-0.12,0.01
		c0.03-3.36,0.06-6.71,0.09-10.07l0.02-4.45c0.03-3.38,0.02-6.76-0.04-10.75c1.93,0.01,4.39,0.01,5.46-0.05
		c2.66-0.15,6.89-0.07,10.62,0c2.56,0.05,4.97,0.09,6.7,0.06c2.21-0.03,4.59,0.33,6.58,0.35c1.96,0.03,3.47-0.3,4.12-0.34
		c0.81-0.04,6.54-0.06,10.33-0.07c-0.01,7.36-0.19,5.23-0.16,14C82.38,14.66,82.6,24.85,82.61,25.48z"/>
	<path class="st0" d="M35.07,10.87l-0.02,4.45c-0.03,3.97-0.07,7.95-0.11,11.94c-0.04,4.63-0.61,9.24-0.66,13.83l0.38,13.39
		c-6.65-0.27-12.67-0.65-13.54-0.8c-0.28-0.05-1.14-0.04-1.42-0.1C15.44,52.71,7.77,49.3,3.34,40.94C-1.97,30.97,0.1,22,2.39,17.74
		c2.67-5,4.88-9.8,7.1-11.42c2.64-1.92,10.89-5.34,15.69-5.77c4.56-0.41,8.93-0.45,9.85-0.46C35.1,4.1,35.11,7.47,35.07,10.87z"/>
</g>
</svg>
