<?xml version="1.0" encoding="utf-8"?>
<!-- Generator: Adobe Illustrator 26.0.2, SVG Export Plug-In . SVG Version: 6.00 Build 0)  -->
<svg version="1.1" id="Capa_1" xmlns="http://www.w3.org/2000/svg" xmlns:xlink="http://www.w3.org/1999/xlink" x="0px" y="0px"
	 viewBox="0 0 373.12 37.25" style="enable-background:new 0 0 373.12 37.25;" xml:space="preserve">
<g>
	<path d="M50.9,0.58h-3.27L33.77,36.69h2.75l3.96-10.4h17.35l3.92,10.44l0.68,0c0.16,0,0.32,0,0.47,0c0.32,0,0.63,0,0.94,0
		c0.08,0,0.17-0.01,0.28-0.03l0.48-0.08l-9.25-24.28L50.9,0.58z M56.88,23.73h-15.4l7.73-20.34L56.88,23.73z"/>
	<path d="M111.86,0.62l-0.33-0.05c-0.12-0.02-0.22-0.04-0.32-0.04c-0.57,0-1.15,0-1.76,0l-0.86,0l-1.36,3.56
		c-1.09,2.85-2.17,5.68-3.26,8.51l-2.03,5.29c-0.84,2.19-1.69,4.38-2.52,6.57c-0.48,1.25-0.96,2.51-1.45,3.76
		c-1.02,2.65-2.08,5.39-3.1,8.12l-0.13,0.34h2.73l3.96-10.41h17.35l3.92,10.43l0.55,0.01c0.29,0,0.56,0.01,0.84,0.01
		c0.37,0,0.75-0.01,1.16-0.03l0.34-0.02L111.91,0.76L111.86,0.62z M117.83,23.73h-15.4l7.72-20.34L117.83,23.73z"/>
	<path d="M359.43,0.71l-0.06-0.16h-3.18l-0.07,0.14c-0.14,0.28-13.68,35.08-13.64,35.75l0.01,0.24h2.5l3.96-10.41h17.35l3.91,10.4
		h2.91L359.43,0.71z M365.34,23.65c-2.01,0.11-13.13,0.15-15.38,0.05l7.72-20.33L365.34,23.65z"/>
	<path d="M159.28,0.64l-0.18,0.05v35.9l0.21,0.04c0.36,0.06,4.18,0.09,8.41,0.09c5.48,0,11.65-0.05,11.93-0.13l0.18-0.05v-2.33
		h-18.01V19.73l12.08,0c0.53,0,1.06,0,1.59,0c0.24,0,0.49,0,0.73,0c0.53,0.01,1.08,0.01,1.64-0.04l0.24-0.02l-0.01-0.24
		c-0.01-0.25-0.01-0.48,0-0.71c0.01-0.43,0.02-0.87-0.09-1.34l-0.05-0.19h-16.11V3.03h18.01V0.71l-0.17-0.06
		C179.05,0.46,160,0.44,159.28,0.64z"/>
	<path d="M289.98,36.66h20.69v-2.45h-18.02c-0.12-2.1-0.07-12.87,0.06-14.49h16.2v-2.53l-7.29,0c-1.28,0-2.56,0-3.83,0
		c-0.58,0-1.16,0-1.73,0c-1.11,0.01-2.26,0.01-3.38-0.02c-0.11-1.78-0.08-12.51,0.04-14.11l13.39,0c0.59,0,1.18,0,1.77,0l2.8-0.02
		V0.51l-20.7,0V36.66z"/>
	<path d="M278.61,1l-0.04-0.39l-0.19-0.03c-0.69-0.11-1.39-0.11-2.25,0L275.9,0.6l0,6.97c0,5.2,0,10.41-0.02,15.61
		c-0.01,1.97-0.34,3.79-1,5.42c-1.02,2.53-2.8,4.3-5.31,5.28c-2.04,0.79-4.18,0.95-6.36,0.47c-3.69-0.82-6.13-3.11-7.24-6.81
		c-0.46-1.53-0.67-3.23-0.67-5.37c0-4.93,0-9.85,0-14.78l0-6.77l-0.21-0.04c-0.83-0.14-1.6-0.09-2.3-0.02l-0.23,0.02l0,6.78
		c0,5.2,0,10.39,0.01,15.59c0,2.07,0.25,3.94,0.76,5.71c0.96,3.37,3.05,5.83,6.22,7.31c1.46,0.68,3.12,1.07,5.09,1.19
		c0.3,0.02,0.61,0.03,0.91,0.03c1.66,0,3.31-0.27,5.02-0.82c0.27-0.09,0.54-0.25,0.74-0.45l0.68-0.68c1.12-1.12,2.28-2.28,3.37-3.46
		c1.14-1.23,1.95-2.51,2.45-3.91c0.53-1.48,0.8-3.1,0.8-4.95c0.02-5.45,0.02-10.9,0.02-16.35l0-5.22
		C278.63,1.24,278.62,1.13,278.61,1z"/>
	<path d="M203.38,18.56c-1.21-0.63-2.51-1.02-3.76-1.41c-0.31-0.09-0.62-0.19-0.93-0.29c-0.47-0.15-0.95-0.29-1.43-0.43
		c-1.36-0.4-2.77-0.82-4.06-1.46c-2.13-1.05-3.26-2.44-3.55-4.37c-0.2-1.33-0.16-2.32,0.14-3.22c0.56-1.73,1.73-3.06,3.45-3.93
		c1.41-0.72,2.99-0.95,4.96-0.73c1.24,0.14,2.29,0.47,3.22,1.03c1.71,1.03,2.76,2.61,3.21,4.83c0.06,0.31,0.12,0.63,0.17,0.94
		l0.11,0.65h2.67l0-0.25c-0.02-1.1-0.17-2.13-0.47-3.16c-0.72-2.45-2.17-4.26-4.3-5.38c-3.24-1.7-6.62-1.83-10.04-0.37
		c-0.23,0.1-0.41,0.21-0.54,0.35c-0.29,0.29-0.58,0.59-0.86,0.88c-0.77,0.78-1.56,1.58-2.28,2.43c-1.55,1.85-2.27,3.93-2.14,6.2
		c0.12,2.04,0.87,3.69,2.3,5.04c0.94,0.89,2.07,1.57,3.37,2.03c1.66,0.58,3.37,1.09,5.03,1.59l0.78,0.23
		c1.28,0.37,2.6,0.76,3.77,1.45c1.03,0.62,1.79,1.37,2.31,2.31c0.58,1.05,0.9,2.22,0.97,3.57c0.15,3.03-1.91,5.98-4.92,7.02
		c-1.22,0.42-2.55,0.55-4.32,0.42c-3.37-0.25-5.93-2.41-6.68-5.63c-0.13-0.57-0.23-1.14-0.33-1.74c-0.05-0.27-0.09-0.55-0.14-0.83
		l-0.04-0.21h-2.64l0,0.25c0.01,1.06,0.14,2.11,0.44,3.28c0.87,3.48,3.02,5.81,6.41,6.92c1.29,0.43,2.64,0.64,4.03,0.64
		c0.88,0,1.78-0.09,2.7-0.26c0.94-0.18,2.12-0.51,3-1.59c0.3-0.37,0.66-0.71,1.01-1.04c0.24-0.23,0.49-0.47,0.72-0.71
		c0.53-0.56,1.12-1.2,1.65-1.88c1.5-1.97,2.05-4.29,1.64-6.9C207.54,22.02,205.99,19.91,203.38,18.56z"/>
	<path d="M86.84,19.21c-0.89-0.62-1.91-1.12-3.03-1.48c-1.31-0.42-2.76-0.87-4.55-1.4c-1.79-0.54-3.38-1.06-4.81-2.01
		c-0.84-0.56-1.39-1.12-1.72-1.77c-0.87-1.67-1.06-3.38-0.54-5.08c0.64-2.13,2.11-3.6,4.38-4.38c1.63-0.56,3.44-0.6,5.37-0.11
		c1.58,0.4,2.86,1.25,3.81,2.53c0.7,0.95,1.14,2.09,1.41,3.71c0.03,0.18,0.07,0.36,0.11,0.55l0.1,0.48l0.21-0.01
		c0.28-0.01,0.55-0.01,0.82,0c0.46,0,0.94,0.01,1.43-0.05l0.25-0.03l-0.03-0.25c-0.03-0.25-0.06-0.49-0.09-0.72
		c-0.06-0.49-0.11-0.95-0.2-1.42c-0.59-3.07-2.23-5.28-4.88-6.56c-3.15-1.53-6.41-1.6-9.68-0.21c-0.18,0.08-0.39,0.18-0.55,0.34
		C74.33,1.68,74,2.01,73.68,2.34C72.85,3.18,72,4.06,71.24,4.99c-1.41,1.75-2.06,3.73-1.91,5.87c0.11,1.63,0.6,2.99,1.48,4.15
		c1.05,1.38,2.47,2.16,3.59,2.68c1.41,0.66,2.92,1.08,4.38,1.49c0.51,0.14,1.03,0.29,1.54,0.44c1.11,0.34,2.26,0.69,3.37,1.14
		c1.12,0.46,1.96,1.05,2.57,1.82c0.98,1.23,1.51,2.71,1.62,4.5c0.2,3.39-2.4,6.61-5.92,7.32c-1.18,0.24-2.42,0.27-3.69,0.1
		c-2-0.27-3.53-1.05-4.7-2.4c-1.04-1.2-1.65-2.72-1.91-4.77c-0.03-0.23-0.06-0.46-0.09-0.69l-0.07-0.51H68.8l0.01,0.26
		c0.06,1.41,0.23,2.57,0.54,3.67c0.87,3.06,2.79,5.18,5.7,6.31c1.48,0.58,3.02,0.86,4.59,0.86c1.29,0,2.61-0.19,3.95-0.58
		c0.52-0.15,0.95-0.41,1.33-0.81c0.53-0.56,1.08-1.11,1.62-1.66c0.38-0.38,0.76-0.76,1.13-1.15c2.1-2.16,3.04-4.71,2.78-7.56
		C90.22,22.84,89,20.73,86.84,19.21z"/>
	<path d="M27.99,28.94c-0.2,0.25-0.38,0.48-0.57,0.71c-1.33,1.6-2.79,2.76-4.47,3.54c-2.68,1.25-5.49,1.57-8.59,0.97
		c-2.17-0.42-4.16-1.37-5.91-2.84c-2.78-2.31-4.53-5.19-5.22-8.56c-0.85-4.19-0.36-8.17,1.47-11.83c1.16-2.33,2.8-4.25,4.87-5.72
		c2.04-1.44,4.23-2.24,6.52-2.36c4.28-0.23,8.02,1.34,11.1,4.66c0.08,0.08,0.16,0.16,0.26,0.24l0.3,0.27l2.2-1.84l-0.15-0.19
		c-1.88-2.34-4.19-3.98-7.07-5.01c-2.14-0.77-4.54-1.06-7.11-0.86c-1.37,0.11-2.71,0.45-4,1.02c-0.66,0.29-1.42,0.67-2,1.21
		C8.33,3.57,6.99,4.93,5.4,6.62c-1.7,1.82-3.06,3.91-4.04,6.22c-0.62,1.47-1.04,2.98-1.24,4.49c-0.2,1.51-0.16,3.12,0.11,5.08
		c0.37,2.63,1.28,5.08,2.7,7.26c2.21,3.4,5.31,5.71,9.23,6.86c1.59,0.47,3.22,0.71,4.87,0.71c0.43,0,0.86-0.02,1.28-0.05
		c1.75-0.13,3.26-0.44,4.64-0.95c2.33-0.87,4.39-2.31,6.3-4.43c0.29-0.32,0.54-0.65,0.8-1c0.12-0.16,0.25-0.32,0.38-0.48l0.15-0.19
		l-2.15-1.75L27.99,28.94z"/>
	<path d="M242.64,28.85c-0.14,0.19-0.27,0.35-0.4,0.52c-1.67,2.13-3.75,3.61-6.18,4.4c-1.54,0.5-3.22,0.71-5.14,0.62
		c-2.19-0.09-4.25-0.75-6.31-2.01c-1.85-1.13-3.38-2.64-4.68-4.63c-1.54-2.36-2.35-5-2.48-8.05c-0.05-1.21,0.04-2.52,0.27-4
		c0.28-1.76,0.88-3.52,1.8-5.22c0.83-1.55,1.89-2.91,3.14-4.06c1.02-0.93,2.01-1.64,3.01-2.17c2.6-1.36,5.4-1.77,8.33-1.23
		c2.33,0.43,4.44,1.46,6.43,3.13c0.41,0.35,0.8,0.72,1.22,1.11c0.19,0.18,0.38,0.36,0.58,0.55l0.16,0.15l2.02-1.69l-0.04-0.24
		c-0.01-0.06-0.02-0.12-0.05-0.18c-0.04-0.08-0.09-0.16-0.15-0.22c-1.54-1.79-3.41-3.19-5.55-4.17c-2.23-1.02-4.67-1.49-7.42-1.43
		c-1.57,0.03-3.07,0.33-4.46,0.87c-0.96,0.37-2.19,0.94-3.15,2c-0.53,0.59-1.11,1.16-1.68,1.7c-0.25,0.24-0.5,0.49-0.74,0.73
		c-2.08,2.08-3.64,4.19-4.76,6.48c-1.19,2.42-1.8,4.91-1.82,7.39c-0.02,1.83,0.21,3.62,0.67,5.31c0.94,3.48,2.75,6.39,5.36,8.65
		c2.14,1.85,4.67,3.09,7.52,3.67c1.2,0.25,2.36,0.37,3.52,0.37c0.5,0,0.99-0.02,1.49-0.07c1.75-0.16,3.28-0.5,4.68-1.06
		c2.1-0.83,3.96-2.12,5.7-3.97c0.56-0.59,1.05-1.19,1.5-1.84l0.13-0.19l-2.15-1.75L242.64,28.85z"/>
	<path d="M340.02,34.39l-0.05-0.18h-17.42V0.61l-0.22-0.03c-0.89-0.12-1.6-0.11-2.3,0.02l-0.2,0.04l0.04,35.67
		c0,0.12,0.08,0.19,0.1,0.22l0.14,0.14l0.2,0.02c0.1,0.01,0.2,0.02,0.3,0.02c6.33,0,12.65,0,18.98-0.01c0.08,0,0.15-0.02,0.21-0.04
		l0.11-0.06l0.22-0.22l-0.01-0.11c-0.01-0.19,0-0.38,0-0.58C340.13,35.3,340.15,34.86,340.02,34.39z"/>
</g>
</svg>
