<svg xmlns="http://www.w3.org/2000/svg" width="785.038" height="600.416" viewBox="0 0 785.038 600.416"><path d="M1491.657,1009.991l-64.229-.221c-57.336-.324-114.795-.868-172.385-1.3-66.849-.545-133.435-7.383-199.627-8.039l-193.221,4.667c3.907-80.764,9.334-153.781,11.56-164.291.732-3.451.648-188.281,1.464-191.716,12.433-51.9,61.628-144.969,182.283-198.735,143.979-64.434,273.47-39.292,334.975-11.537,72.183,32.43,147.915,55.954,164.845,86.2,89.911,160.572,77.141,306.7,83.262,364.93,5.859,55.29,6.517,108.4,6.648,119.614C1589.38,1010.314,1540.655,1010.425,1491.657,1009.991Z" transform="translate(-862.195 -409.828)" fill="#efebe2"/></svg>