<svg xmlns="http://www.w3.org/2000/svg" xmlns:xlink="http://www.w3.org/1999/xlink" width="741.288" height="582.93" viewBox="0 0 741.288 582.93"><defs><clipPath id="a"><rect width="741.287" height="582.93" fill="#efebe2"/></clipPath></defs><g transform="translate(0 0)"><g transform="translate(0 0)" clip-path="url(#a)"><path d="M412.523,582.929c-84.449-8.152-183.832-16.148-282.736-28.143-37.115-4.5-73.057-18.464-109.632-27.738C4.484,523.071-1.643,514.7.372,497.836,19.023,341.285,28.535,184.184,25.5,26.481,25.087,5.213,32.357-.8,54.175.083c180.644,7.363,361.36,12.991,542.014,20.1,42.183,1.651,84.21,7.269,126.352,10.426,15.141,1.132,19.471,7.986,18.651,22.753-6.979,124.9-13.355,249.827-19.866,374.756-1.641,31.445-5.141,62.973-4.144,94.346.924,29.036-11.164,40.065-38.808,41.778-83.38,5.192-166.686,11.61-265.851,18.682" transform="translate(0.002 0.005)" fill="#efebe2"/></g></g></svg>