<svg xmlns="http://www.w3.org/2000/svg" xmlns:xlink="http://www.w3.org/1999/xlink" width="724.936" height="660.37" viewBox="0 0 724.936 660.37"><defs><clipPath id="a"><rect width="724.936" height="660.37" fill="#efebe2"/></clipPath></defs><g transform="translate(0 0)"><g transform="translate(0 0)" clip-path="url(#a)"><path d="M346.221,659.766c-117.236,6.523-217.28-40.1-294.435-136.066C7.407,468.533-4.173,403.241,1.232,334.91a722.461,722.461,0,0,1,18.6-113.991c5.459-22.292,15.77-45.008,29.445-63.426,84.5-113.806,193.49-175.354,339.79-152.921q50.174,7.684,100.37,15.281c114.468,17.159,185.068,83.992,219.733,192.5Q751.157,343.75,681.018,461.9c-21.077,35.4-39.169,74.008-66.5,103.984-69.655,76.4-161.929,97.526-268.3,93.88" transform="translate(-0.005 -0.001)" fill="#efebe2"/></g></g></svg>