<svg xmlns="http://www.w3.org/2000/svg" xmlns:xlink="http://www.w3.org/1999/xlink" width="660.158" height="600.416" viewBox="0 0 660.158 600.416"><defs><clipPath id="a"><rect width="660.158" height="600.416" fill="#efebe2"/></clipPath></defs><g transform="translate(0 0)" clip-path="url(#a)"><path d="M130.835.256l54.013.219c48.219.328,96.529.867,144.958,1.3,56.221.547,112.213,7.381,167.877,8.038L660.158,5.156c-3.285,80.754-7.846,153.781-9.726,164.291-.611,3.449-.538,188.278-1.232,191.708C638.754,413.06,597.387,506.123,495.922,559.9,374.849,624.33,265.957,599.185,214.235,571.43c-60.7-32.435-124.384-55.956-138.626-86.2C0,324.66,10.748,178.534,5.593,120.306.666,65.016.119,11.9,0,.694,48.657-.072,89.632-.182,130.835.256" transform="translate(0 0)" fill="#efebe2"/></g></svg>